<?xml version="1.0" standalone="no"?>
<!DOCTYPE svg PUBLIC "-//W3C//DTD SVG 20010904//EN"
 "http://www.w3.org/TR/2001/REC-SVG-20010904/DTD/svg10.dtd">
<svg version="1.0" xmlns="http://www.w3.org/2000/svg"
 width="152.000000pt" height="152.000000pt" viewBox="0 0 152.000000 152.000000"
 preserveAspectRatio="xMidYMid meet">

<g transform="translate(0.000000,152.000000) scale(0.100000,-0.100000)"
fill="#000000" stroke="none">
<path d="M498 893 l72 -4 0 -129 0 -129 -112 -4 c-62 -1 82 -4 320 -5 l433 -2
-3 138 -3 137 -390 1 c-214 0 -357 -1 -317 -3z m149 -135 c-3 -8 -6 -5 -6 6
-1 11 2 17 5 13 3 -3 4 -12 1 -19z m147 -8 c-6 -6 -10 -2 -11 12 -2 16 1 18
10 9 7 -7 8 -14 1 -21z m203 8 c-3 -8 -6 -5 -6 6 -1 11 2 17 5 13 3 -3 4 -12
1 -19z m80 0 c-3 -8 -6 -5 -6 6 -1 11 2 17 5 13 3 -3 4 -12 1 -19z"/>
<path d="M415 826 c-37 -16 -55 -52 -55 -111 0 -33 4 -45 15 -45 11 0 15 12
15 50 0 68 22 90 90 90 28 0 50 5 50 10 0 6 -8 10 -17 11 -10 0 -29 2 -43 4
-14 3 -39 -2 -55 -9z"/>
<path d="M311 708 c0 -42 2 -79 7 -81 4 -3 6 20 4 51 -5 98 -9 110 -11 30z"/>
<path d="M450 756 c0 -12 11 -16 41 -16 52 0 48 24 -4 28 -28 2 -37 -1 -37
-12z"/>
</g>
</svg>
